<svg width="186" height="60" viewBox="0 0 186 60" fill="none" xmlns="http://www.w3.org/2000/svg">
<path d="M25.8878 36.9189C25.8878 36.9189 27.0688 34.1579 27.3148 26.578C27.3148 26.578 27.1778 24.896 28.2808 23.7129L29.9058 22.7389L29.6648 20.9539L14.7538 30.961L15.1068 33.2689C15.1068 33.2689 19.2538 29.8159 19.7878 30.741C19.7878 30.741 20.4708 34.095 19.5368 38.117C19.5368 38.117 18.0718 41.831 15.3918 41.6699C15.3918 41.6699 8.88379 40.456 9.13579 32.974C9.38379 25.505 9.4258 18.146 10.8678 13.7949C10.8678 13.7949 12.2878 7.55794 17.4738 4.81194C17.4738 4.81194 20.1778 3.22994 21.4468 5.09295C21.4468 5.09295 23.9918 6.55693 19.4528 10.3389L20.1168 12.7519L29.5158 4.75194C29.5158 4.75194 29.6288 0.438953 18.7638 2.47094C18.7638 2.47094 6.2598 4.53496 2.2738 20.5059C2.2738 20.5059 -2.1492 39.857 8.15481 44.8909C8.15481 44.8909 14.3708 46.7469 20.2398 42.3069C20.2398 42.3069 24.2908 39.068 25.8878 36.9189Z" fill="#024B1D"/>
<path d="M31.8014 26.5157C31.9034 26.2087 34.0894 24.6137 34.0894 24.6137C34.0894 24.6137 34.9864 23.2947 35.2404 26.1077C35.4854 28.9097 35.2204 41.1577 34.2564 44.4197C34.0064 45.2427 34.5754 44.6637 34.5754 44.6637L39.5974 40.5727C39.5974 40.5727 39.4064 29.8537 42.3334 25.3637C42.3334 25.3637 43.3934 23.7057 44.0494 23.6317C44.6984 23.5457 46.1804 24.8347 46.9834 24.5237C46.9834 24.5237 48.8634 23.5457 49.8184 21.4547L51.0634 19.3407L50.6564 19.0067C50.6564 19.0067 49.1074 20.3287 46.7414 19.9977C46.7414 19.9977 45.1654 18.9067 44.5514 19.3177L40.6074 24.4207C40.6074 24.4207 40.8204 20.4447 37.9824 19.3177C37.9824 19.3177 32.6234 23.2947 30.6124 25.3427C30.6124 25.3427 31.7004 26.8197 31.8014 26.5157Z" fill="#024B1D"/>
<path d="M53.4591 28.5858C53.5431 27.3418 54.1441 25.7208 54.1441 25.7208C54.8731 23.3678 56.5251 22.1388 56.5251 22.1388C56.5251 22.1388 57.7271 23.8428 57.0961 25.7748C55.8721 29.4848 53.4301 31.2188 53.4301 31.2188C53.3051 29.3548 53.4151 29.3628 53.4591 28.5858ZM68.8471 25.5698C69.6991 21.9908 71.4161 22.0708 71.4161 22.0708C72.3671 23.4288 72.3551 26.0158 71.3351 27.7888C69.8491 30.3708 68.4301 31.6278 68.4301 31.6278C68.4301 31.6278 68.3411 30.2668 68.3031 29.0448C68.2621 27.8258 68.6051 26.5838 68.8471 25.5698ZM50.6261 42.9268C50.6261 42.9268 50.9371 44.3568 53.0301 42.7208C53.0301 42.7208 59.3971 39.5708 63.3041 33.3048C63.3041 33.3048 63.4391 38.2268 66.6481 42.3088C66.6481 42.3088 67.3651 43.5448 68.0631 43.8168C68.7811 44.0698 70.1061 43.4488 70.9461 42.7308C70.9461 42.7308 75.0101 40.1728 82.0341 28.6588C82.2091 28.4038 84.4271 24.0158 84.6221 23.7568C84.6221 23.7568 85.8291 22.8968 85.6471 25.2658C85.4441 28.5078 85.7831 32.6978 83.3501 43.0188C83.3501 43.0188 82.6091 44.8168 83.6391 43.9498L88.6571 40.4848C88.6571 40.4848 88.8961 35.8798 89.5941 33.5588C89.5941 33.5588 91.3911 25.9938 94.5321 23.3518C94.5321 23.3518 95.6121 22.2028 95.4071 24.8648C95.4071 24.8648 95.5181 27.9848 94.1091 36.4048C94.1091 36.4048 93.8871 38.0098 93.8061 40.3178C93.7471 41.6308 94.7201 43.7458 95.2761 44.2758C95.6221 44.5968 96.1741 44.2758 97.5141 43.5348C97.5141 43.5348 99.2261 42.5598 102.832 37.8518C102.832 37.8518 102.046 36.8888 102.006 36.9368C101.671 37.2728 99.5771 40.4698 98.9201 39.7078C98.2681 38.9488 99.1231 34.3908 98.9541 34.6838C98.9541 34.6838 100.998 23.5358 100.11 20.4448C100.11 20.4448 99.5641 17.6068 98.9471 17.7928C98.3531 17.9738 95.8211 19.6188 94.1031 21.8858L90.3421 27.0188C90.3421 27.0188 90.9211 18.8188 87.7071 18.8328C87.7071 18.8328 86.2761 19.8288 85.6471 20.4448C85.6471 20.4448 83.4901 22.4288 82.2721 24.7038C79.4231 30.0768 77.9561 31.7368 76.2601 33.9378C76.2601 33.9378 73.1221 37.9448 71.4551 37.8728C71.4551 37.8728 69.3781 37.1488 68.8771 33.2198C68.8771 33.2198 74.7051 29.7248 76.0821 22.4448C76.0821 22.4448 76.0821 19.7228 75.6131 18.8478C75.1321 17.9648 74.9481 17.5128 73.7991 18.2188C73.7991 18.2188 65.9371 20.5308 63.4281 30.0478C63.4281 30.0478 59.1421 37.7788 55.6311 38.1048C54.8131 37.7788 53.9611 37.4468 53.6511 35.3028L53.4971 33.2198C53.4971 33.2198 57.6421 30.2518 59.3141 27.4908C59.3141 27.4908 62.2461 22.9918 60.9881 19.1118C60.9881 19.1118 60.7801 17.0658 59.1021 18.1908C59.1021 18.1908 56.0741 19.6188 53.1411 22.3848C53.1411 22.3848 47.8991 27.2858 48.0131 32.9068C48.0131 32.9068 47.5871 38.5328 50.6261 42.9268Z" fill="#024B1D"/>
<path d="M114.492 2.97707C114.492 2.97707 117.751 0.0340796 119.143 5.5021C119.856 8.27907 116.657 10.3711 116.657 10.3711L116.854 11.1401L123.435 5.99609C123.435 5.99609 123.156 4.1441 122.2 2.98409C122.2 2.98409 114.313 -7.02592 108.553 9.62109C107.651 12.2311 107.497 17.4971 107.497 17.4971C107.497 17.4971 104.976 18.4371 102.342 22.1161C102.342 22.1161 102.38 22.7871 103.134 22.5991C103.134 22.5991 104.567 20.6371 107.555 19.9881C107.555 19.9881 107.689 31.2711 106.43 44.1581L106.667 44.3841L111.714 41.9021C112.221 36.4141 112.805 25.5051 112.725 19.7451C112.725 19.7451 113.395 19.9121 114.209 19.8701C114.209 19.8701 115.29 19.7771 116.025 19.6271C116.747 19.4761 117.648 19.1961 119.632 16.8871C119.815 16.5521 119.94 16.0411 119.239 16.3161C115.906 17.6111 112.408 16.6441 112.408 16.6441C112.432 14.3781 111.755 6.56609 114.492 2.97707Z" fill="#024B1D"/>
<path d="M166.163 34.0251L164.072 36.7181C162.578 38.9981 161.836 35.8072 161.836 35.8072C161.404 32.7552 161.819 29.4152 161.819 29.4152C163.393 19.5232 167.195 22.9651 167.195 22.9651L166.163 34.0251ZM134.754 27.2942C135.239 25.1852 137.798 23.0591 137.798 23.0591C139.452 26.4981 134.349 31.5962 134.349 31.5962C134.349 31.5962 134.268 29.4062 134.754 27.2942ZM176.894 33.4501C176.535 33.6661 174.865 36.9412 172.252 37.5232C172.252 37.5232 171.327 35.0151 171.786 29.1992C171.786 29.1992 174.429 2.50916 174.429 2.02115C174.429 2.02115 174.689 0.421143 173.642 0.421143L164.752 7.46814C164.752 7.46814 164.945 7.78214 165.386 8.29614C165.386 8.29614 168.824 6.05115 169.277 7.24115C169.744 8.43814 168.018 18.7751 168.018 18.7751C168.018 18.7751 160.325 19.1182 157.006 30.7212C157.006 30.7212 151.353 38.6742 151.518 35.4452C151.518 35.4452 152.514 22.5702 153.017 18.9771C153.017 18.9771 154.354 5.14215 154.354 4.65216C154.354 4.65216 154.166 2.52014 153 2.68713L144.367 9.46515C144.367 9.46515 144.469 9.49216 145.223 10.2481C145.223 10.2481 147.312 8.52515 148.154 8.91614C148.544 9.09814 148.366 11.7621 148.366 11.7621C148.366 11.7621 147.112 25.5381 146.123 27.3322C146.123 27.3322 142.834 34.7512 137.09 37.4851C137.09 37.4851 134.427 36.1002 134.581 33.3261C134.581 33.3261 140.236 30.0692 141.561 24.5232C141.561 24.5232 142.363 21.8932 142.095 19.9721C142.095 19.9721 142.211 17.8832 141.21 18.0432C141.21 18.0432 137.301 18.8232 133.074 25.1791C132.075 26.6671 130.668 29.4981 129.998 33.3752C129.998 33.3752 127.218 37.9242 125.602 37.1562C125.602 37.1562 124.123 36.0492 125.785 27.0742C125.785 27.0742 127.03 20.4932 127.03 20.0042C127.03 19.5092 127.802 17.4501 127.129 17.7791C127.129 17.7791 123.017 19.7221 117.498 23.3511L118.109 24.2441C118.731 24.2441 122.047 21.6722 122.221 22.4702C122.347 22.9922 121.864 24.3741 121.864 24.3741C121.42 26.1652 119.997 32.2751 120.139 35.4482C120.139 35.4482 120.418 43.9622 122.913 44.1302C122.913 44.1302 124.456 42.9492 125.785 41.3251L130.475 35.0222C130.475 35.0222 130.267 39.6921 132.918 42.7902L134.253 44.0971C134.253 44.0971 139.83 40.0381 146.206 31.0482C146.206 31.0482 145.211 40.8261 146.206 42.4601C146.206 42.4601 147.042 43.9282 147.705 43.9282C147.705 43.9282 153.899 37.1711 156.882 32.9301C156.882 32.9301 156.593 42.0071 161.479 43.5992C161.479 43.5992 165.166 37.7602 166.163 35.8072C166.163 35.8072 166.116 39.3051 166.225 40.3592C166.333 41.4152 166.848 44.1501 169.118 44.0002C169.118 44.0002 172.901 41.4832 177.635 33.7131C177.635 33.7131 177.263 33.2342 176.894 33.4501Z" fill="#024B1D"/>
<path d="M181.073 28.396H181.414C181.808 28.396 182.147 28.253 182.147 27.878C182.147 27.616 181.951 27.352 181.414 27.352C181.266 27.352 181.157 27.365 181.073 27.376V28.396ZM181.073 30.066H180.599V27.052C180.845 27.017 181.083 26.981 181.441 26.981C181.893 26.981 182.192 27.076 182.368 27.207C182.552 27.339 182.642 27.544 182.642 27.833C182.642 28.229 182.378 28.468 182.058 28.566V28.591C182.318 28.637 182.497 28.878 182.559 29.323C182.63 29.792 182.702 29.972 182.749 30.066H182.253C182.182 29.972 182.108 29.694 182.049 29.297C181.982 28.913 181.786 28.768 181.407 28.768H181.073V30.066ZM181.573 26.208C180.397 26.208 179.431 27.23 179.431 28.491C179.431 29.779 180.397 30.786 181.59 30.786C182.774 30.801 183.722 29.779 183.722 28.505C183.722 27.23 182.774 26.208 181.59 26.208H181.573ZM181.59 25.791C183.048 25.791 184.213 26.991 184.213 28.491C184.213 30.018 183.048 31.209 181.573 31.209C180.111 31.209 178.921 30.018 178.921 28.491C178.921 26.991 180.111 25.791 181.573 25.791H181.59Z" fill="#024B1D"/>
<path d="M0 59.4239L0.0169983 59.0719L0.0379944 58.3319L0.0659943 57.2399V55.6679L0.0529938 54.9679L0.0379944 54.3309L0 53.9219L0.580994 53.9539L1.702 53.9849L2.697 53.9709L3.281 53.9219L3.257 54.2289L3.281 54.5529L2.723 54.5219C2.419 54.5059 2.084 54.5009 1.686 54.4949H1.29099V54.9679V55.7479V56.3339L1.645 56.3439C1.967 56.3439 2.336 56.3339 2.743 56.3019L3.186 56.2739L3.171 56.5799L3.186 56.9099L2.743 56.8789C2.334 56.8579 1.95499 56.8399 1.63499 56.8399H1.29099V57.2899L1.306 58.3679L1.324 59.0879L1.354 59.4239L0.710998 59.4119L0 59.4239Z" fill="#E5CE90"/>
<path d="M5.8828 58.2178L5.89079 56.6668L5.8828 55.2858C5.8828 54.8738 5.8828 54.5528 5.85279 54.2968L5.82379 53.9618L6.5118 53.9858L7.1898 53.9618L7.15079 54.2968C7.13979 54.4788 7.12979 54.8158 7.12979 55.3038L7.11379 56.6838V58.2518C7.11779 58.5738 7.12979 58.8498 7.13979 59.0868L7.1898 59.4238L6.5118 59.4118L5.82379 59.4238L5.85279 59.0278L5.8828 58.2178Z" fill="#E5CE90"/>
<path d="M10.7974 57.956L10.8244 56.518L10.8134 55.251L10.7634 54.4641L10.7434 53.962L11.1654 53.985L11.5734 53.962L11.9734 54.44C12.1434 54.648 12.4484 54.968 12.8854 55.416L13.8444 56.4211C14.1944 56.784 14.5154 57.1021 14.7844 57.381L15.2184 57.7791L15.1954 57.095L15.1914 56.224L15.1514 55.242L15.1284 54.371L15.1164 53.962L15.4614 53.985L15.8244 53.962V54.297L15.7944 55.1281L15.7694 56.712L15.7624 58.2V59.018L15.7734 59.424L15.4084 59.412L15.0014 59.424L14.6684 59.021C14.4604 58.773 14.2034 58.492 13.9134 58.187C13.6344 57.876 13.2804 57.5201 12.8414 57.077L11.8574 56.073L11.4254 55.626L11.4114 55.9431L11.3994 56.784L11.4254 57.9431C11.4254 58.448 11.4254 58.833 11.4414 59.104L11.4644 59.424L11.1184 59.412L10.7434 59.424L10.7634 59.104C10.7634 58.816 10.7784 58.427 10.7974 57.956Z" fill="#E5CE90"/>
<path d="M19.2852 58.3526L19.2922 57.3496L19.2852 55.8996V55.0506L19.2672 54.3686L19.2212 53.9586L19.9402 54.0086C20.0942 54.0086 20.3702 54.0236 20.7562 54.0236C21.3252 54.0236 21.7242 54.0086 21.9822 53.9986L22.4552 53.9586L22.4392 54.3076L22.4552 54.6746L21.9472 54.6456L20.9592 54.6196L20.5142 54.6106V56.3376L21.0062 56.3446C21.3252 56.3446 21.6292 56.3376 21.9142 56.3166L22.4032 56.2816L22.3812 56.6396L22.4032 57.0056L21.8902 56.9676C21.6372 56.9496 21.3352 56.9396 21.0032 56.9316L20.5142 56.9396V58.8526L20.9682 58.8656C21.2532 58.8656 21.5492 58.8526 21.8872 58.8316L22.4552 58.7906L22.4392 59.1526L22.4552 59.5106L21.9112 59.4806L20.9532 59.4496H19.9402L19.2212 59.5106L19.2672 59.1096C19.2782 58.8976 19.2852 58.6436 19.2852 58.3526Z" fill="#E5CE90"/>
<path d="M25.5718 58.2403V55.0653C25.5718 54.7783 25.5718 54.5523 25.5528 54.3453L25.5088 53.9623L26.2028 53.9853L26.8688 53.9623L26.8318 54.3453C26.8148 54.5683 26.8028 54.8153 26.7968 55.0833V58.9093L27.4988 58.8993C27.8588 58.8993 28.1368 58.8953 28.3378 58.8733L28.7698 58.8493L28.7498 59.1613L28.7698 59.4753L28.1658 59.4243C27.9148 59.4123 27.4798 59.4123 26.8938 59.4123H26.1298L25.5088 59.4753L25.5448 59.0973C25.5578 58.8543 25.5718 58.5723 25.5718 58.2403Z" fill="#E5CE90"/>
<path d="M32.585 53.9619L32.735 54.3459C32.824 54.5689 32.936 54.8159 33.081 55.0829C33.175 55.3219 33.321 55.6089 33.478 55.9029L33.812 56.5099L34.146 55.8969C34.304 55.5689 34.434 55.2999 34.553 55.0449C34.634 54.8619 34.733 54.6199 34.842 54.3459L34.995 53.9619L35.441 53.9849L35.892 53.9619L35.636 54.3619C35.561 54.4549 35.441 54.6909 35.234 55.0659L34.474 56.4629L34.146 57.1609L34.09 57.5729C34.08 57.7039 34.068 57.8949 34.068 58.1529C34.068 58.5119 34.08 58.7839 34.09 58.9639L34.146 59.4239L33.478 59.4119L32.787 59.4239L32.824 58.9539L32.849 58.2859V57.1609L32.479 56.5179L31.709 55.1079C31.577 54.9019 31.425 54.6549 31.241 54.3769L30.972 53.9619L31.841 53.9849L32.585 53.9619Z" fill="#E5CE90"/>
<path d="M42.9546 58.17C43.1445 58.718 43.5106 58.991 44.0406 58.984C44.3535 58.984 44.5936 58.925 44.7466 58.798C44.9445 58.635 45.0565 58.425 45.0565 58.182C45.0565 57.92 44.8876 57.704 44.5625 57.5C44.3885 57.395 44.1916 57.293 43.9935 57.204L43.4666 56.932C43.0526 56.71 42.7836 56.429 42.6586 56.091C42.6035 55.919 42.5676 55.727 42.5676 55.514C42.5676 55.242 42.6185 55.008 42.7036 54.811C42.8015 54.584 42.9546 54.403 43.1705 54.241C43.5146 53.978 43.9465 53.852 44.4765 53.83C44.8876 53.83 45.2505 53.913 45.5956 54.079L45.8026 54.192L45.6546 54.561C45.6236 54.655 45.5956 54.799 45.5446 54.992H45.3866C45.2746 54.741 45.1566 54.571 45.0266 54.503C44.8555 54.391 44.6436 54.339 44.4335 54.339C44.1826 54.339 43.9866 54.391 43.8275 54.519C43.6586 54.655 43.5565 54.824 43.5656 55.046C43.5656 55.329 43.7146 55.537 44.0005 55.717C44.1826 55.826 44.4066 55.941 44.6555 56.066C45.1996 56.322 45.5596 56.551 45.7446 56.766C45.8405 56.894 45.9185 57.04 45.9776 57.214C46.0356 57.382 46.0576 57.536 46.0576 57.712C46.0576 58.243 45.8405 58.676 45.4276 59.028C45.0495 59.336 44.5746 59.492 43.9736 59.492C43.7845 59.492 43.5656 59.462 43.3616 59.438C43.1705 59.391 42.9846 59.361 42.8306 59.28L42.5085 59.147C42.5876 58.926 42.6496 58.772 42.6665 58.67C42.7036 58.549 42.7305 58.39 42.7486 58.17H42.9546Z" fill="#E5CE90"/>
<path d="M49.0059 58.3145L49.0189 57.3135L49.0059 55.8625V55.0145L48.9809 54.3315L48.9389 53.9215L49.6579 53.9705C49.8269 53.9705 50.0939 53.9855 50.4779 53.9855C51.0469 53.9855 51.4529 53.9705 51.6989 53.9615L52.1829 53.9215L52.1689 54.2695L52.1829 54.6385L51.6829 54.6085L50.6859 54.5825L50.2409 54.5745V56.3015L50.7359 56.3075C51.0469 56.3075 51.3439 56.3015 51.6409 56.2795L52.1239 56.2435L52.1049 56.6035L52.1239 56.9695L51.6209 56.9285C51.3549 56.9125 51.0579 56.9025 50.7139 56.8945L50.2409 56.9025V58.8165L50.6959 58.8305C50.9679 58.8305 51.2779 58.8165 51.6019 58.7935L52.1829 58.7545L52.1689 59.1165L52.1829 59.4755L51.6299 59.4425L50.6849 59.4125H49.6579L48.9389 59.4755L48.9809 59.0725C48.9959 58.8615 49.0059 58.6065 49.0059 58.3145Z" fill="#E5CE90"/>
<path d="M55.1748 58.2403V55.0653C55.1748 54.7783 55.1548 54.5523 55.1538 54.3453L55.0948 53.9623L55.7988 53.9853L56.4598 53.9623L56.4218 54.3453C56.4048 54.5683 56.4028 54.8153 56.3908 55.0833V58.9093L57.0938 58.8993C57.4528 58.8993 57.7108 58.8953 57.9328 58.8733L58.3638 58.8493L58.3418 59.1613L58.3638 59.4753L57.7658 59.4243C57.5078 59.4123 57.0768 59.4123 56.4778 59.4123H55.7218L55.0948 59.4753L55.1258 59.0973C55.1538 58.8543 55.1548 58.5723 55.1748 58.2403Z" fill="#E5CE90"/>
<path d="M61.2725 58.3145L61.2775 57.3135L61.2725 55.8625V55.0145L61.2445 54.3315L61.2125 53.9215L61.9205 53.9705C62.0855 53.9705 62.3585 53.9855 62.7365 53.9855C63.3025 53.9855 63.7155 53.9705 63.9625 53.9615L64.4415 53.9215L64.4215 54.2695L64.4415 54.6385L63.9375 54.6085L62.9495 54.5825L62.4955 54.5745V56.3015L62.9915 56.3075C63.3025 56.3075 63.6105 56.3015 63.9095 56.2795L64.3835 56.2435L64.3635 56.6035L64.3835 56.9695L63.8835 56.9285C63.6165 56.9125 63.3255 56.9025 62.9785 56.8945L62.4955 56.9025V58.8165L62.9635 58.8305C63.2395 58.8305 63.5425 58.8165 63.8695 58.7935L64.4415 58.7545L64.4215 59.1165L64.4415 59.4755L63.8965 59.4425L62.9495 59.4125H61.9205L61.2125 59.4755L61.2445 59.0725C61.2725 58.8615 61.2725 58.6065 61.2725 58.3145Z" fill="#E5CE90"/>
<path d="M71.479 54.7782C71.185 54.5102 70.81 54.3772 70.345 54.3772C69.741 54.3772 69.259 54.6202 68.885 55.1072C68.59 55.5232 68.435 56.0412 68.435 56.6702C68.435 57.1052 68.519 57.5202 68.663 57.8972C68.807 58.2522 69.032 58.5252 69.345 58.7202C69.67 58.9262 70.019 59.0172 70.404 59.0212C70.889 59.0212 71.3 58.8952 71.683 58.6102L71.927 58.4262L72.044 58.4782L71.927 58.8542L71.861 59.1742L71.653 59.2692C71.26 59.4262 70.766 59.5212 70.204 59.5282C69.677 59.5282 69.195 59.4262 68.743 59.2692C68.403 59.1382 68.092 58.9542 67.819 58.7062C67.579 58.4632 67.397 58.2182 67.269 57.9432C67.13 57.6072 67.06 57.2222 67.06 56.7842C67.06 55.8472 67.376 55.1282 68.004 54.6202C68.625 54.1232 69.401 53.8662 70.374 53.8662C70.869 53.8662 71.325 53.9502 71.742 54.0852L72.062 54.1982L71.944 54.5932L71.831 55.0852H71.766C71.657 54.9632 71.56 54.8612 71.479 54.7782Z" fill="#E5CE90"/>
<path d="M74.5552 53.9219L75.2172 53.9499C75.8092 53.9709 76.3022 53.9849 76.7012 53.9849C77.1282 53.9849 77.6162 53.9709 78.1872 53.9499L78.8362 53.9219L78.8152 54.2369L78.8362 54.5529L78.3042 54.5219L77.6452 54.4949H77.3062V56.3179L77.3192 57.8549L77.3412 58.8989L77.3842 59.4239L76.7012 59.4119L76.0182 59.4239L76.0402 58.8989L76.0732 57.8549L76.0892 56.3179L76.0952 54.8239V54.4949H75.7572L75.0862 54.5219L74.5552 54.5529L74.5772 54.2369L74.5552 53.9219Z" fill="#E5CE90"/>
<path d="M81.6206 58.3145V57.3135V55.8625V55.0145L81.5866 54.3315L81.5536 53.9215L82.2606 53.9705C82.4256 53.9705 82.7066 53.9855 83.0786 53.9855C83.6456 53.9855 84.0466 53.9705 84.2986 53.9615L84.7846 53.9215L84.7626 54.2695L84.7846 54.6385L84.2746 54.6085L83.2896 54.5825L82.8446 54.5745V56.3015L83.3356 56.3075C83.6456 56.3075 83.9556 56.3015 84.2496 56.2795L84.7306 56.2435L84.7026 56.6035L84.7306 56.9695L84.2186 56.9285C83.9556 56.9125 83.6666 56.9025 83.3196 56.8945L82.8446 56.9025V58.8165L83.3006 58.8305C83.5786 58.8305 83.8706 58.8165 84.2036 58.7935L84.7846 58.7545L84.7626 59.1165L84.7846 59.4755L84.2406 59.4425L83.2776 59.4125H82.2606L81.5536 59.4755L81.5866 59.0725C81.6016 58.8615 81.6206 58.6065 81.6206 58.3145Z" fill="#E5CE90"/>
<path d="M89.6026 58.8956L90.0476 58.9096C90.7186 58.9096 91.2356 58.6776 91.5766 58.2177C91.8766 57.8127 92.0296 57.2776 92.0296 56.6036C92.0296 56.1076 91.9366 55.6856 91.7436 55.3376C91.5076 54.8966 91.1576 54.6386 90.6946 54.5526C90.4826 54.5096 90.1946 54.5006 89.8306 54.4866L89.2996 54.5096L89.2876 55.1076L89.2666 56.7056L89.2816 58.1936L89.2996 58.8727L89.6026 58.8956ZM88.0366 58.2266L88.0496 56.6666L88.0366 55.0846C88.0366 54.7446 88.0236 54.5056 88.0116 54.3546L87.9806 53.9216L88.3076 53.9706C88.4216 53.9706 88.5616 53.9856 88.7626 53.9856C89.0846 53.9856 89.4106 53.9706 89.7316 53.9616L90.5726 53.9216C91.0596 53.9216 91.4646 53.9706 91.7876 54.0746C92.3016 54.2286 92.7036 54.5686 93.0256 55.0846C93.2716 55.5306 93.3986 56.0406 93.4126 56.5936C93.3986 57.4507 93.1046 58.1536 92.5256 58.7056C91.9816 59.2246 91.2356 59.4756 90.2796 59.4756C90.0476 59.4756 89.7646 59.4637 89.4526 59.4426L88.7396 59.4117C88.5296 59.4117 88.3936 59.4117 88.2896 59.4236L87.9806 59.4756L88.0116 59.0636C88.0236 58.8956 88.0236 58.6106 88.0366 58.2266Z" fill="#E5CE90"/>
<path d="M100.982 58.17C101.166 58.718 101.542 58.991 102.071 58.984C102.367 58.984 102.61 58.925 102.764 58.796C102.972 58.633 103.088 58.427 103.088 58.182C103.088 57.919 102.913 57.704 102.59 57.5C102.41 57.395 102.223 57.293 102.018 57.204L101.494 56.932C101.082 56.71 100.808 56.427 100.681 56.091C100.63 55.919 100.595 55.727 100.595 55.514C100.595 55.242 100.635 55.008 100.727 54.811C100.827 54.584 100.982 54.403 101.194 54.24C101.542 53.977 101.981 53.852 102.501 53.83C102.905 53.83 103.27 53.913 103.614 54.079L103.828 54.192L103.676 54.561C103.652 54.655 103.614 54.799 103.564 54.992H103.399C103.301 54.741 103.18 54.572 103.051 54.501C102.873 54.391 102.665 54.339 102.453 54.339C102.203 54.339 102.013 54.391 101.857 54.518C101.677 54.655 101.575 54.824 101.587 55.046C101.587 55.33 101.735 55.537 102.018 55.717C102.203 55.826 102.433 55.938 102.677 56.066C103.232 56.322 103.586 56.551 103.768 56.764C103.859 56.892 103.94 57.04 104.001 57.213C104.062 57.381 104.077 57.536 104.077 57.712C104.077 58.241 103.859 58.676 103.457 59.028C103.077 59.336 102.595 59.492 101.986 59.492C101.799 59.492 101.587 59.462 101.37 59.438C101.194 59.391 100.998 59.361 100.845 59.28L100.543 59.147C100.617 58.926 100.669 58.772 100.695 58.668C100.727 58.549 100.748 58.39 100.771 58.17H100.982Z" fill="#E5CE90"/>
<path d="M108.721 56.5216C109.445 56.5136 109.809 56.1236 109.809 55.3596C109.803 54.7506 109.505 54.4646 108.911 54.4576L108.628 54.4686L108.588 54.9046L108.573 55.5056L108.565 56.1686L108.573 56.5076L108.721 56.5216ZM108.663 53.9336L109.379 53.9236C110.027 53.9336 110.494 54.0746 110.769 54.3326C110.893 54.4416 110.981 54.5606 111.046 54.7056C111.137 54.9166 111.164 55.1296 111.164 55.3686C111.164 56.4726 110.43 57.0296 108.957 57.0296L108.573 57.0186V57.4056L108.58 58.3316L108.616 59.0256L108.631 59.3856L107.989 59.3756L107.276 59.3856L107.295 59.0516L107.311 58.4116L107.343 57.3946V56.1356L107.336 55.1696C107.336 54.7796 107.311 54.4736 107.307 54.2346L107.28 53.9236L107.944 53.9496L108.663 53.9336Z" fill="#E5CE90"/>
<path d="M114.107 58.2774L114.117 57.2764L114.107 55.8264V54.9774L114.084 54.2954L114.057 53.8844L114.76 53.9334C114.929 53.9334 115.194 53.9494 115.582 53.9494C116.143 53.9494 116.55 53.9334 116.796 53.9244L117.28 53.8844L117.254 54.2344L117.28 54.6014L116.773 54.5724L115.788 54.5464L115.337 54.5374V56.2644L115.836 56.2704C116.143 56.2704 116.437 56.2644 116.745 56.2434L117.218 56.2074L117.199 56.5674L117.218 56.9314L116.717 56.8914C116.446 56.8754 116.146 56.8674 115.827 56.8574L115.337 56.8674V58.7804L115.797 58.7924C116.07 58.7924 116.375 58.7804 116.704 58.7574L117.28 58.7174L117.254 59.0804L117.28 59.4374L116.737 59.4054L115.776 59.3764H114.76L114.057 59.4374L114.084 59.0354C114.107 58.8234 114.107 58.5704 114.107 58.2774Z" fill="#E5CE90"/>
<path d="M124.382 54.7412C124.08 54.4742 123.715 54.3392 123.248 54.3392C122.642 54.3392 122.155 54.5842 121.788 55.0712C121.484 55.4862 121.348 56.0052 121.348 56.6342C121.348 57.0682 121.409 57.4822 121.569 57.8602C121.71 58.2152 121.942 58.4892 122.256 58.6842C122.573 58.8892 122.919 58.9802 123.307 58.9842C123.782 58.9842 124.199 58.8592 124.593 58.5732L124.835 58.3892L124.948 58.4422L124.835 58.8172L124.755 59.1372L124.557 59.2322C124.153 59.3912 123.669 59.4852 123.108 59.4922C122.589 59.4922 122.099 59.3912 121.641 59.2322C121.303 59.1012 120.986 58.9172 120.72 58.6682C120.466 58.4272 120.291 58.1812 120.167 57.9062C120.023 57.5712 119.97 57.1852 119.97 56.7482C119.97 55.8092 120.275 55.0922 120.908 54.5842C121.517 54.0852 122.303 53.8302 123.27 53.8302C123.772 53.8302 124.221 53.9132 124.645 54.0482L124.962 54.1622L124.85 54.5572L124.734 55.0482H124.673C124.557 54.9262 124.452 54.8242 124.382 54.7412Z" fill="#E5CE90"/>
<path d="M127.785 58.1816L127.813 56.6296L127.801 55.2486C127.801 54.8376 127.801 54.5166 127.768 54.2606L127.747 53.9236L128.423 53.9496L129.1 53.9236L129.072 54.2606C129.051 54.4416 129.044 54.7796 129.044 55.2676L129.034 56.6456V58.2146C129.038 58.5376 129.044 58.8116 129.067 59.0496L129.1 59.3856L128.437 59.3756L127.747 59.3856L127.768 58.9916L127.785 58.1816Z" fill="#E5CE90"/>
<path d="M133.814 57.2471C133.974 57.2581 134.143 57.2711 134.317 57.2711C134.478 57.2711 134.61 57.2711 134.744 57.2581L135.014 57.2231L134.882 56.9111L134.465 55.9381L134.281 55.4851L134.078 55.9381L133.666 56.9111L133.532 57.2231L133.814 57.2471ZM133.666 55.4941L134.091 54.4841L134.281 53.9431L134.572 53.9671L134.946 53.9431L135.153 54.4841L135.54 55.4751C136.048 56.7281 136.534 57.8391 137.019 58.8151L137.333 59.4051L136.524 59.3941L135.826 59.4051L135.65 58.8761L135.393 58.1881L135.273 57.8391L134.822 57.8011C134.68 57.7951 134.484 57.7781 134.255 57.7781C134.019 57.7781 133.846 57.7781 133.704 57.8011L133.273 57.8391L133.132 58.1821C133.058 58.3911 132.98 58.6221 132.901 58.8531L132.727 59.4051L132.305 59.3941L131.845 59.4051L132.15 58.8371C132.627 57.8551 133.132 56.7551 133.666 55.4941Z" fill="#E5CE90"/>
<path d="M140.07 58.1796V55.0027C140.07 54.7177 140.063 54.4906 140.047 54.2846L140.006 53.9006L140.701 53.9226L141.359 53.9006L141.333 54.2846C141.317 54.5067 141.304 54.7546 141.296 55.0226V58.8466L141.996 58.8376C142.356 58.8376 142.635 58.8347 142.84 58.8106L143.269 58.7867L143.258 59.0986L143.269 59.4117L142.677 59.3616C142.408 59.3517 141.984 59.3517 141.376 59.3517H140.626L140.006 59.4117L140.047 59.0346C140.063 58.7917 140.063 58.5116 140.07 58.1796Z" fill="#E5CE90"/>
<path d="M146.162 58.2061L146.171 56.6551L146.162 55.2751C146.162 54.8621 146.162 54.5391 146.138 54.2851L146.109 53.9501L146.794 53.9721L147.479 53.9501L147.439 54.2851C147.416 54.4671 147.415 54.8041 147.415 55.2931L147.393 56.6701V58.2391C147.406 58.5631 147.415 58.8381 147.432 59.0731L147.479 59.4111L146.794 59.4001L146.109 59.4111L146.138 59.0171L146.162 58.2061Z" fill="#E5CE90"/>
<path d="M150.279 53.96L150.937 53.987C151.523 54.009 152.026 54.024 152.426 54.024C152.842 54.024 153.328 54.009 153.905 53.987L154.561 53.96L154.547 54.274L154.561 54.591L154.032 54.558L153.368 54.534H153.03V56.356L153.048 57.893L153.058 58.936L153.092 59.461L152.426 59.45L151.743 59.461L151.766 58.936L151.802 57.893V56.356V54.86V54.534H151.48L150.801 54.558L150.279 54.591L150.298 54.274L150.279 53.96Z" fill="#E5CE90"/>
<path d="M158.487 54.0234L158.634 54.4084C158.72 54.6305 158.833 54.8765 158.971 55.1465C159.076 55.3835 159.219 55.6674 159.393 55.9644L159.717 56.5705L160.035 55.9585C160.204 55.6305 160.344 55.3635 160.455 55.1064C160.54 54.9235 160.645 54.6834 160.745 54.4084L160.902 54.0234L161.35 54.0464L161.797 54.0234L161.532 54.4244C161.458 54.5164 161.337 54.7545 161.135 55.1265L160.384 56.5275L160.035 57.2224L159.987 57.6364C159.977 57.7645 159.977 57.9575 159.977 58.2144C159.977 58.5735 159.977 58.8445 159.999 59.0255L160.035 59.4865L159.377 59.4755L158.694 59.4865L158.72 59.0164L158.75 58.3465V57.2224L158.378 56.5804L157.607 55.1704C157.478 54.9634 157.331 54.7174 157.142 54.4405L156.873 54.0234L157.741 54.0464L158.487 54.0234Z" fill="#E5CE90"/>
<path d="M167.429 53.8848L168.096 53.9128C168.685 53.9338 169.174 53.9488 169.574 53.9488C170.001 53.9488 170.487 53.9338 171.067 53.9128L171.718 53.8848L171.689 54.1998L171.718 54.5168L171.184 54.4848L170.514 54.4578H170.177V56.2808L170.203 57.8178L170.22 58.8618L170.249 59.3858L169.57 59.3758L168.888 59.3858L168.923 58.8618L168.945 57.8178L168.952 56.2808L168.971 54.7868V54.4578H168.628L167.969 54.4848L167.429 54.5168L167.457 54.1998L167.429 53.8848Z" fill="#E5CE90"/>
<path d="M174.402 58.2774L174.414 57.2764L174.402 55.8264V54.9774L174.375 54.2954L174.34 53.8844L175.044 53.9334C175.205 53.9334 175.493 53.9494 175.866 53.9494C176.435 53.9494 176.835 53.9334 177.098 53.9244L177.572 53.8844L177.558 54.2344L177.572 54.6014L177.072 54.5724L176.082 54.5464L175.636 54.5374V56.2644L176.12 56.2704C176.435 56.2704 176.745 56.2644 177.044 56.2434L177.512 56.2074L177.484 56.5674L177.512 56.9314L177.014 56.8914C176.745 56.8754 176.452 56.8674 176.109 56.8574L175.636 56.8674V58.7804L176.099 58.7924C176.374 58.7924 176.67 58.7804 177.002 58.7574L177.572 58.7174L177.558 59.0804L177.572 59.4374L177.034 59.4054L176.066 59.3764H175.044L174.34 59.4374L174.375 59.0354C174.387 58.8234 174.402 58.5704 174.402 58.2774Z" fill="#E5CE90"/>
<path d="M181.902 57.2042C182.06 57.2132 182.215 57.2271 182.405 57.2271C182.561 57.2271 182.694 57.2271 182.82 57.2132L183.095 57.1801L182.966 56.8672L182.556 55.8942L182.359 55.4422L182.157 55.8942L181.754 56.8672L181.598 57.1801L181.902 57.2042ZM181.754 55.4511L182.164 54.4402L182.362 53.9001L182.665 53.9232L183.023 53.9001L183.242 54.4402L183.626 55.4301C184.124 56.6841 184.623 57.7961 185.108 58.7711L185.414 59.3611L184.606 59.3512L183.9 59.3611L183.729 58.8351L183.472 58.1451L183.358 57.7961L182.904 57.7572C182.774 57.7502 182.577 57.7332 182.343 57.7332C182.109 57.7332 181.919 57.7332 181.785 57.7572L181.355 57.7961L181.225 58.1362C181.137 58.3492 181.065 58.5792 180.982 58.8102L180.813 59.3611L180.389 59.3512L179.923 59.3611L180.235 58.7921C180.717 57.8132 181.211 56.7112 181.754 55.4511Z" fill="#E5CE90"/>
</svg>
