<svg width="19" height="16" viewBox="0 0 19 16" fill="none" xmlns="http://www.w3.org/2000/svg">
<path d="M19 2.18037C18.302 2.48654 17.5583 2.68948 16.7829 2.78802C17.5806 2.31175 18.1894 1.56333 18.4756 0.661231C17.7319 1.10465 16.9107 1.41787 16.0356 1.59265C15.3294 0.840712 14.3229 0.375 13.2249 0.375C11.0946 0.375 9.3796 2.10412 9.3796 4.22387C9.3796 4.52886 9.4054 4.82213 9.46875 5.10133C6.26977 4.94531 3.43914 3.4121 1.53758 1.0765C1.2056 1.65248 1.01087 2.31175 1.01087 3.02146C1.01087 4.35408 1.69712 5.53536 2.72004 6.21927C2.10183 6.20754 1.49535 6.02806 0.981539 5.74535C0.981539 5.75708 0.981539 5.77233 0.981539 5.78758C0.981539 7.65746 2.31533 9.21061 4.06439 9.5684C3.75117 9.65404 3.40981 9.69509 3.05554 9.69509C2.80919 9.69509 2.5605 9.68102 2.32706 9.6294C2.82562 11.1532 4.24035 12.2735 5.92254 12.3099C4.61339 13.334 2.95114 13.951 1.15164 13.951C0.836078 13.951 0.533424 13.9369 0.23077 13.8982C1.93525 14.9974 3.95529 15.625 6.13369 15.625C13.2144 15.625 17.0855 9.75961 17.0855 4.6755C17.0855 4.5054 17.0797 4.34117 17.0715 4.17811C17.8351 3.63615 18.4768 2.95929 19 2.18037Z" fill="#066035"/>
</svg>
