<svg width="25" height="14" viewBox="0 0 25 14" fill="none" xmlns="http://www.w3.org/2000/svg">
<path d="M24.3179 12.4871C24.252 12.3767 23.844 11.4902 21.8809 9.66827C19.8258 7.76041 20.1019 8.0702 22.5772 4.77132C24.0848 2.76224 24.6875 1.53531 24.4989 1.01081C24.3194 0.510836 23.2106 0.64273 23.2106 0.64273L19.5237 0.664201C19.5237 0.664201 19.2507 0.627393 19.0468 0.748552C18.8489 0.868177 18.7216 1.14423 18.7216 1.14423C18.7216 1.14423 18.1373 2.69936 17.3582 4.02136C15.7157 6.81107 15.0577 6.95831 14.7893 6.785C14.1651 6.38165 14.3216 5.1624 14.3216 4.29742C14.3216 1.59359 14.7311 0.46636 13.5225 0.174966C13.1207 0.0783461 12.8263 0.0139328 11.8003 0.00319722C10.4844 -0.0106056 9.36942 0.00779817 8.73909 0.316062C8.31887 0.521571 7.99527 0.980134 8.19311 1.00621C8.43696 1.03841 8.98907 1.15497 9.282 1.55372C9.66081 2.06749 9.64701 3.22386 9.64701 3.22386C9.64701 3.22386 9.86479 6.40619 9.13937 6.80187C8.64093 7.07333 7.95846 6.51968 6.49382 3.98762C5.74387 2.69169 5.17641 1.25772 5.17641 1.25772C5.17641 1.25772 5.06753 0.990869 4.87275 0.848239C4.63657 0.674937 4.3053 0.619725 4.3053 0.619725L0.799375 0.641196C0.799375 0.641196 0.273332 0.656533 0.0800922 0.885047C-0.0916767 1.08902 0.0662894 1.50924 0.0662894 1.50924C0.0662894 1.50924 2.81153 7.93064 5.9187 11.1682C8.76976 14.1358 12.0058 13.941 12.0058 13.941H13.4719C13.4719 13.941 13.9152 13.8919 14.1406 13.6481C14.3492 13.4242 14.3415 13.004 14.3415 13.004C14.3415 13.004 14.3124 11.0363 15.2264 10.7464C16.1267 10.4612 17.2831 12.6482 18.5084 13.4901C19.4348 14.1266 20.1387 13.987 20.1387 13.987L23.4161 13.941C23.4161 13.941 25.1307 13.8352 24.3179 12.4871Z" fill="#066035"/>
</svg>
