<svg width="25" height="14" fill="none" xmlns="http://www.w3.org/2000/svg"><path d="M24.318 12.487c-.066-.11-.474-.997-2.437-2.819-2.055-1.908-1.78-1.598.696-4.897 1.508-2.009 2.11-3.236 1.922-3.76-.18-.5-1.288-.368-1.288-.368l-3.687.021s-.273-.037-.477.085c-.198.12-.325.395-.325.395s-.585 1.555-1.364 2.877c-1.642 2.79-2.3 2.937-2.569 2.764-.624-.403-.467-1.623-.467-2.488 0-2.703.41-3.83-.8-4.122-.401-.097-.696-.161-1.722-.172-1.316-.014-2.43.005-3.06.313-.421.206-.745.664-.547.69.244.032.796.149 1.089.548.379.513.365 1.67.365 1.67s.218 3.182-.508 3.578c-.498.271-1.18-.282-2.645-2.814-.75-1.296-1.318-2.73-1.318-2.73S5.068.99 4.873.848A1.529 1.529 0 004.305.62L.8.64S.273.657.08.885c-.172.204-.014.624-.014.624s2.746 6.422 5.853 9.66c2.85 2.967 6.087 2.772 6.087 2.772h1.466s.443-.05.669-.293c.208-.224.2-.644.2-.644s-.029-1.968.885-2.258c.9-.285 2.057 1.902 3.282 2.744.927.637 1.63.497 1.63.497l3.278-.046s1.715-.106.902-1.454z" fill="#066035"/></svg>