<svg width="186" height="60" fill="none" xmlns="http://www.w3.org/2000/svg"><path d="M25.888 36.919s1.18-2.761 1.427-10.341c0 0-.137-1.682.966-2.865l1.625-.974-.241-1.785L14.754 30.96l.353 2.308s4.147-3.453 4.68-2.528c0 0 .684 3.354-.25 7.376 0 0-1.465 3.714-4.145 3.553 0 0-6.508-1.214-6.256-8.696.248-7.469.29-14.828 1.732-19.18 0 0 1.42-6.236 6.606-8.982 0 0 2.704-1.582 3.973.28 0 .001 2.545 1.465-1.994 5.247l.664 2.413 9.399-8S29.629.439 18.764 2.47c0 0-12.504 2.064-16.49 18.035 0 0-4.423 19.351 5.88 24.385 0 0 6.217 1.856 12.086-2.584 0 0 4.05-3.239 5.648-5.388zm5.913-10.403c.102-.307 2.288-1.902 2.288-1.902s.897-1.32 1.151 1.494c.245 2.802-.02 15.05-.984 18.312-.25.823.32.244.32.244l5.021-4.091s-.19-10.72 2.736-15.21c0 0 1.06-1.657 1.716-1.731.65-.086 2.131 1.203 2.934.892 0 0 1.88-.978 2.835-3.07l1.245-2.113-.407-.334s-1.549 1.322-3.915.99c0 0-1.576-1.09-2.19-.68l-3.944 5.104s.213-3.976-2.625-5.103c0 0-5.359 3.977-7.37 6.025 0 0 1.088 1.477 1.19 1.173zm21.659 2.07c.083-1.244.684-2.865.684-2.865.73-2.353 2.381-3.582 2.381-3.582s1.202 1.704.571 3.636c-1.224 3.71-3.666 5.444-3.666 5.444-.125-1.864-.015-1.856.03-2.633zm15.387-3.016c.852-3.58 2.57-3.5 2.57-3.5.95 1.359.938 3.946-.082 5.719-1.486 2.582-2.905 3.839-2.905 3.839s-.089-1.361-.127-2.583c-.04-1.22.302-2.461.544-3.475zm-18.22 17.357s.31 1.43 2.403-.206c0 0 6.367-3.15 10.274-9.416 0 0 .135 4.922 3.344 9.004 0 0 .717 1.236 1.415 1.508.718.253 2.043-.368 2.883-1.086 0 0 4.064-2.558 11.088-14.072.175-.255 2.393-4.643 2.588-4.902 0 0 1.207-.86 1.025 1.509-.203 3.242.136 7.432-2.297 17.753 0 0-.74 1.798.29.93l5.017-3.464s.24-4.605.937-6.926c0 0 1.797-7.565 4.938-10.207 0 0 1.08-1.15.875 1.513 0 0 .111 3.12-1.298 11.54 0 0-.222 1.605-.303 3.913-.059 1.313.914 3.428 1.47 3.958.346.32.898 0 2.238-.741 0 0 1.712-.975 5.318-5.683 0 0-.786-.963-.826-.915-.335.336-2.429 3.533-3.086 2.77-.652-.758.203-5.316.034-5.023 0 0 2.044-11.148 1.156-14.24 0 0-.546-2.837-1.163-2.651-.594.18-3.126 1.826-4.844 4.093l-3.76 5.133s.578-8.2-2.636-8.186c0 0-1.43.996-2.06 1.612 0 0-2.157 1.984-3.375 4.259-2.849 5.373-4.316 7.033-6.012 9.234 0 0-3.138 4.007-4.805 3.935 0 0-2.077-.724-2.578-4.653 0 0 5.828-3.495 7.205-10.775 0 0 0-2.722-.469-3.597-.48-.883-.665-1.335-1.814-.63 0 0-7.862 2.313-10.37 11.83 0 0-4.287 7.73-7.798 8.057-.818-.326-1.67-.658-1.98-2.802l-.154-2.083s4.145-2.968 5.817-5.73c0 0 2.932-4.498 1.674-8.378 0 0-.208-2.046-1.886-.921 0 0-3.028 1.428-5.96 4.194 0 0-5.243 4.9-5.129 10.522 0 0-.426 5.626 2.613 10.02zm63.865-39.95s3.259-2.943 4.651 2.525c.713 2.777-2.486 4.87-2.486 4.87l.197.768 6.581-5.144s-.279-1.852-1.235-3.012c0 0-7.887-10.01-13.647 6.637-.902 2.61-1.056 7.876-1.056 7.876s-2.521.94-5.155 4.62c0 0 .038.67.792.482 0 0 1.433-1.962 4.421-2.61 0 0 .134 11.282-1.125 24.17l.237.225 5.047-2.482c.507-5.488 1.091-16.397 1.011-22.157 0 0 .67.167 1.484.125 0 0 1.081-.093 1.816-.243.722-.15 1.623-.43 3.607-2.74.183-.335.308-.846-.393-.57-3.333 1.294-6.831.327-6.831.327.024-2.266-.653-10.078 2.084-13.667z" fill="#024B1D"/><path d="M166.163 34.025l-2.091 2.693c-1.494 2.28-2.236-.91-2.236-.91-.432-3.053-.017-6.393-.017-6.393 1.574-9.892 5.376-6.45 5.376-6.45l-1.032 11.06zm-31.409-6.73c.485-2.11 3.044-4.236 3.044-4.236 1.654 3.44-3.449 8.537-3.449 8.537s-.081-2.19.405-4.302zm42.14 6.155c-.359.216-2.029 3.491-4.642 4.073 0 0-.925-2.508-.466-8.324 0 0 2.643-26.69 2.643-27.178 0 0 .26-1.6-.787-1.6l-8.89 7.047s.193.314.634.828c0 0 3.438-2.245 3.891-1.055.467 1.197-1.259 11.534-1.259 11.534s-7.693.343-11.012 11.946c0 0-5.653 7.953-5.488 4.724 0 0 .996-12.875 1.499-16.468 0 0 1.337-13.835 1.337-14.325 0 0-.188-2.132-1.354-1.965l-8.633 6.778s.102.027.856.783c0 0 2.089-1.723 2.931-1.332.39.182.212 2.846.212 2.846s-1.254 13.776-2.243 15.57c0 0-3.289 7.42-9.033 10.153 0 0-2.663-1.385-2.509-4.159 0 0 5.655-3.257 6.98-8.803 0 0 .802-2.63.534-4.55 0 0 .116-2.09-.885-1.93 0 0-3.909.78-8.136 7.136-.999 1.488-2.406 4.32-3.076 8.196 0 0-2.78 4.55-4.396 3.781 0 0-1.479-1.107.183-10.082 0 0 1.245-6.58 1.245-7.07 0-.495.772-2.554.099-2.225 0 0-4.112 1.943-9.631 5.572l.611.893c.622 0 3.938-2.572 4.112-1.774.126.522-.357 1.904-.357 1.904-.444 1.791-1.867 7.901-1.725 11.074 0 0 .279 8.514 2.774 8.682 0 0 1.543-1.18 2.872-2.805l4.69-6.303s-.208 4.67 2.443 7.768l1.335 1.307s5.577-4.059 11.953-13.049c0 0-.995 9.778 0 11.412 0 0 .836 1.468 1.499 1.468 0 0 6.194-6.757 9.177-10.998 0 0-.289 9.077 4.597 10.67 0 0 3.687-5.84 4.684-7.793 0 0-.047 3.498.062 4.552.108 1.056.623 3.791 2.893 3.641 0 0 3.783-2.517 8.517-10.287 0 0-.372-.479-.741-.263zm4.179-5.054h.341c.394 0 .733-.143.733-.518 0-.262-.196-.526-.733-.526-.148 0-.257.013-.341.024v1.02zm0 1.67h-.474v-3.014c.246-.035.484-.071.842-.071.452 0 .751.095.927.226.184.132.274.337.274.626 0 .396-.264.635-.584.733v.025c.26.046.439.287.501.732.071.469.143.649.19.743h-.496c-.071-.094-.145-.372-.204-.769-.067-.384-.263-.529-.642-.529h-.334v1.298zm.5-3.858c-1.176 0-2.142 1.022-2.142 2.283 0 1.288.966 2.295 2.159 2.295 1.184.015 2.132-1.007 2.132-2.281 0-1.275-.948-2.297-2.132-2.297h-.017zm.017-.417c1.458 0 2.623 1.2 2.623 2.7 0 1.527-1.165 2.718-2.64 2.718-1.462 0-2.652-1.191-2.652-2.718 0-1.5 1.19-2.7 2.652-2.7h.017z" fill="#024B1D"/><path d="M0 59.424l.017-.352.021-.74.028-1.092v-1.572l-.013-.7-.015-.637L0 53.92l.581.033 1.121.03.995-.013.584-.05-.024.308.024.324-.558-.031c-.304-.016-.639-.021-1.037-.027h-.395v1.839l.354.01c.322 0 .691-.01 1.098-.042l.443-.028-.015.306.015.33-.443-.031a22.865 22.865 0 00-1.108-.04h-.344v.45l.015 1.079.018.72.03.336-.643-.012-.711.012zm5.883-1.206l.008-1.551-.008-1.381c0-.412 0-.733-.03-.99l-.03-.334.689.024.678-.024-.04.335c-.01.182-.02.519-.02 1.007l-.016 1.38v1.568c.004.322.016.598.026.835l.05.337-.678-.012-.688.012.029-.396.03-.81zm4.914-.262l.027-1.438-.01-1.267-.05-.787-.02-.502.421.023.408-.023.4.478c.17.208.475.528.912.976l.96 1.005c.35.363.67.681.94.96l.433.398-.023-.684-.004-.871-.04-.982-.023-.871-.012-.409.345.023.363-.023v.335l-.03.831-.025 1.584-.007 1.488v.818l.011.406-.365-.012-.407.012-.333-.403a18.645 18.645 0 00-.755-.834c-.279-.311-.633-.667-1.072-1.11l-.984-1.004-.432-.447-.014.317-.012.841.026 1.16c0 .504 0 .889.016 1.16l.023.32-.346-.012-.375.012.02-.32c0-.288.015-.677.034-1.148zm8.488.397l.007-1.003-.007-1.45v-.85l-.018-.681-.046-.41.72.05c.153 0 .43.015.815.015.57 0 .968-.015 1.226-.025l.473-.04-.016.349.016.367-.508-.03-.988-.025-.445-.01v1.728l.492.007c.32 0 .623-.007.908-.028l.49-.035-.023.358.022.366-.513-.038a19.822 19.822 0 00-.887-.036l-.489.008v1.913l.454.013c.285 0 .581-.013.92-.034l.567-.041-.016.362.016.358-.544-.03-.958-.031H19.94l-.719.06.046-.4c.011-.212.018-.466.018-.757zm6.287-.113v-3.175c0-.287 0-.513-.02-.72l-.043-.383.694.023.666-.023-.037.383c-.017.223-.03.47-.035.738v3.826l.702-.01c.36 0 .638-.004.839-.026l.432-.024-.02.312.02.314-.604-.05c-.251-.013-.686-.013-1.272-.013h-.764l-.621.063.036-.378c.013-.243.027-.525.027-.857zm7.013-4.278l.15.384c.089.223.201.47.346.737.094.239.24.526.397.82l.334.607.334-.613c.158-.328.288-.597.407-.852.081-.183.18-.425.289-.7l.153-.383.446.023.451-.023-.256.4c-.075.093-.195.329-.402.704l-.76 1.397-.328.698-.056.412c-.01.13-.022.322-.022.58 0 .359.012.63.022.81l.056.46-.668-.011-.691.012.037-.47.025-.668V57.16l-.37-.643-.77-1.41c-.132-.206-.284-.453-.468-.731l-.269-.415.869.023.744-.023zm10.37 4.208c.19.548.556.821 1.086.814.313 0 .553-.059.706-.186a.785.785 0 00.31-.616c0-.262-.17-.478-.495-.682a5.42 5.42 0 00-.569-.296l-.526-.272c-.414-.222-.683-.503-.808-.841a1.879 1.879 0 01-.091-.577c0-.272.05-.506.136-.703a1.39 1.39 0 01.466-.57c.345-.263.776-.389 1.306-.411.412 0 .775.083 1.12.249l.207.113-.148.369c-.031.094-.06.238-.11.431h-.158c-.112-.251-.23-.421-.36-.489a1.089 1.089 0 00-.593-.164c-.251 0-.447.052-.606.18-.17.136-.272.305-.262.527 0 .283.149.491.434.671.183.109.407.224.656.349.544.256.904.485 1.089.7a1.586 1.586 0 01.313.946c0 .531-.218.964-.63 1.316-.378.308-.853.464-1.454.464-.19 0-.408-.03-.612-.054-.192-.047-.377-.077-.531-.158l-.323-.133c.08-.221.142-.375.158-.477.038-.121.065-.28.083-.5h.206zm6.051.145l.013-1.002-.013-1.45v-.849l-.025-.683-.042-.41.719.05c.169 0 .436.015.82.015.569 0 .975-.015 1.22-.024l.485-.04-.014.348.014.368-.5-.03-.997-.025-.445-.008V56.3l.495.006c.31 0 .608-.006.905-.028l.483-.036-.02.36.02.366-.503-.04a25.054 25.054 0 00-.907-.035l-.473.009v1.913l.455.014c.272 0 .582-.014.906-.036l.58-.04-.013.363.014.358-.553-.032-.945-.03h-1.027l-.72.063.043-.404c.015-.21.025-.466.025-.758zm6.169-.075v-3.175c0-.287-.02-.513-.021-.72l-.06-.383.705.023.66-.023-.037.383c-.017.223-.02.47-.031.738v3.826l.703-.01c.359 0 .617-.004.839-.026l.43-.024-.021.312.022.314-.598-.05c-.258-.013-.69-.013-1.288-.013h-.756l-.627.063.03-.378c.029-.243.03-.525.05-.857zm6.098.075l.005-1.002-.005-1.45v-.849l-.029-.683-.032-.41.708.05c.166 0 .438.015.816.015.567 0 .98-.015 1.227-.024l.479-.04-.02.348.02.368-.504-.03-.989-.025-.453-.008V56.3l.495.006c.312 0 .62-.006.919-.028l.474-.036-.02.36.02.366-.5-.04a24.753 24.753 0 00-.906-.035l-.483.009v1.913l.469.014c.276 0 .578-.014.906-.036l.572-.04-.02.363.02.358-.545-.032-.947-.03h-1.03l-.708.063.032-.404c.029-.21.029-.466.029-.758zm10.206-3.537c-.294-.268-.669-.4-1.134-.4-.604 0-1.086.242-1.46.73-.295.415-.45.933-.45 1.562 0 .435.084.85.228 1.227.144.355.369.628.682.823.325.206.674.297 1.059.301a2.05 2.05 0 001.279-.41l.244-.185.117.052-.117.376-.066.32-.208.095c-.393.157-.887.252-1.449.26a4.406 4.406 0 01-1.461-.26 2.92 2.92 0 01-.924-.563 2.71 2.71 0 01-.55-.763 3.007 3.007 0 01-.209-1.159c0-.937.316-1.656.944-2.164.621-.497 1.397-.754 2.37-.754.495 0 .951.084 1.368.22l.32.112-.118.395-.113.492h-.065a9.46 9.46 0 00-.287-.307zm3.076-.856l.662.028c.592.02 1.085.035 1.484.035.427 0 .915-.014 1.486-.035l.65-.028-.022.315.021.316-.532-.031-.659-.027h-.339v1.823l.013 1.537.022 1.044.043.525-.683-.012-.683.012.022-.525.033-1.044.016-1.537.006-1.494v-.33h-.338l-.67.028-.532.03.022-.315-.022-.315zm7.065 4.393v-3.301l-.033-.683-.033-.41.707.05c.165 0 .446.015.818.015.567 0 .968-.015 1.22-.024l.486-.04-.022.348.022.368-.51-.03-.985-.025-.445-.008V56.3l.49.006c.31 0 .62-.006.915-.028l.48-.036-.027.36.028.366-.512-.04a24.04 24.04 0 00-.9-.035l-.474.009v1.913l.456.014c.278 0 .57-.014.903-.036l.58-.04-.021.363.022.358-.544-.032-.963-.03H82.26l-.707.063.033-.404c.015-.21.034-.466.034-.758zm7.983.581l.445.014c.67 0 1.188-.232 1.529-.692.3-.405.453-.94.453-1.614 0-.496-.093-.918-.286-1.266-.236-.441-.586-.7-1.05-.785-.211-.043-.5-.052-.863-.066l-.531.023-.012.598-.021 1.598.015 1.488.018.679.303.023zm-1.566-.67l.013-1.56-.013-1.581c0-.34-.013-.58-.025-.73l-.031-.433.327.049c.114 0 .254.015.455.015.322 0 .648-.015.969-.024l.84-.04c.488 0 .893.049 1.216.153.514.154.916.494 1.238 1.01.246.446.373.956.387 1.509-.014.857-.308 1.56-.887 2.112-.544.519-1.29.77-2.246.77-.232 0-.515-.012-.827-.033l-.713-.031c-.21 0-.346 0-.45.012l-.31.052.032-.412c.012-.168.012-.453.025-.837zm12.945-.056c.184.548.56.821 1.089.814.296 0 .539-.059.693-.188.208-.163.324-.369.324-.614 0-.263-.175-.478-.498-.682a5.383 5.383 0 00-.572-.296l-.524-.272c-.412-.222-.686-.505-.813-.841a2.015 2.015 0 01-.086-.577c0-.272.04-.506.132-.703.1-.227.255-.408.467-.571.348-.263.787-.388 1.307-.41.404 0 .769.083 1.113.249l.214.113-.152.369-.112.431h-.165c-.098-.251-.219-.42-.348-.491a1.134 1.134 0 00-.598-.162c-.25 0-.44.052-.596.179-.18.137-.282.306-.27.528 0 .284.148.491.431.671.185.109.415.221.659.349.555.256.909.485 1.091.698.091.128.172.276.233.449.061.168.076.323.076.499 0 .529-.218.964-.62 1.316-.38.308-.862.464-1.471.464-.187 0-.399-.03-.616-.054-.176-.047-.372-.077-.525-.158l-.302-.133c.074-.221.126-.375.152-.479.032-.119.053-.278.076-.498h.211zm7.739-1.648c.724-.008 1.088-.398 1.088-1.162-.006-.61-.304-.895-.898-.902l-.283.01-.04.437-.015.6-.008.664.008.339.148.014zm-.058-2.588l.716-.01c.648.01 1.115.15 1.39.409.124.109.212.228.277.373.091.21.118.424.118.663 0 1.104-.734 1.66-2.207 1.66l-.384-.01v.387l.007.926.036.694.015.36-.642-.01-.713.01.019-.334.016-.64.032-1.017v-1.26l-.007-.965c0-.39-.025-.696-.029-.935l-.027-.311.664.026.719-.016zm5.444 4.343l.01-1-.01-1.45v-.85l-.023-.682-.027-.41.703.048c.169 0 .434.016.822.016.561 0 .968-.016 1.214-.025l.484-.04-.026.35.026.367-.507-.029-.985-.026-.451-.009v1.727l.499.006c.307 0 .601-.006.909-.027l.473-.036-.019.36.019.364-.501-.04c-.271-.016-.571-.024-.89-.034l-.49.01v1.913l.46.012c.273 0 .578-.012.907-.035l.576-.04-.026.363.026.357-.543-.032-.961-.029h-1.016l-.703.061.027-.402c.023-.212.023-.465.023-.758zm10.275-3.536c-.302-.267-.667-.402-1.134-.402-.606 0-1.093.245-1.46.732-.304.415-.44.934-.44 1.563 0 .434.061.848.221 1.226.141.355.373.63.687.824.317.205.663.296 1.051.3a2.1 2.1 0 001.286-.41l.242-.185.113.053-.113.375-.08.32-.198.095a4.09 4.09 0 01-1.449.26 4.455 4.455 0 01-1.467-.26 2.838 2.838 0 01-.921-.564 2.38 2.38 0 01-.553-.762c-.144-.335-.197-.72-.197-1.158 0-.939.305-1.656.938-2.164.609-.499 1.395-.754 2.362-.754.502 0 .951.083 1.375.218l.317.114-.112.395-.116.491h-.061c-.116-.122-.221-.224-.291-.307zm3.403 3.441l.028-1.552-.012-1.381c0-.411 0-.732-.033-.988l-.021-.337.676.026.677-.026-.028.337c-.021.18-.028.519-.028 1.007l-.01 1.378v1.569c.004.323.01.597.033.835l.033.336-.663-.01-.69.01.021-.394.017-.81zm6.029-.935c.16.011.329.024.503.024.161 0 .293 0 .427-.013l.27-.035-.132-.312-.417-.973-.184-.453-.203.453-.412.973-.134.312.282.024zm-.148-1.753l.425-1.01.19-.54.291.023.374-.024.207.541.387.991a48.684 48.684 0 001.479 3.34l.314.59-.809-.01-.698.01-.176-.529-.257-.688-.12-.349-.451-.038c-.142-.006-.338-.023-.567-.023-.236 0-.409 0-.551.023l-.431.038-.141.343c-.074.21-.152.44-.231.671l-.174.552-.422-.01-.46.01.305-.568c.477-.982.982-2.082 1.516-3.343zm6.404 2.686v-3.177c0-.285-.007-.512-.023-.718l-.041-.384.695.022.658-.022-.026.384c-.016.222-.029.47-.037.738v3.824l.7-.01c.36 0 .639-.002.844-.026l.429-.024-.011.312.011.313-.592-.05c-.269-.01-.693-.01-1.301-.01h-.75l-.62.06.041-.377c.016-.243.016-.523.023-.855zm6.092.026l.009-1.55-.009-1.38c0-.414 0-.737-.024-.99l-.029-.336.685.022.685-.022-.04.335c-.023.182-.024.52-.024 1.008l-.022 1.377v1.57c.013.323.022.598.039.833l.047.338-.685-.01-.685.01.029-.394.024-.81zm4.117-4.246l.658.027c.586.022 1.089.037 1.489.037.416 0 .902-.015 1.479-.037l.656-.027-.014.314.014.317-.529-.033-.664-.024h-.338v1.822l.018 1.537.01 1.043.034.525-.666-.011-.683.011.023-.525.036-1.043v-3.359h-.322l-.679.024-.522.033.019-.317-.019-.314zm8.208.063l.147.385c.086.222.199.468.337.739.105.236.248.52.422.817l.324.607.318-.612c.169-.329.309-.596.42-.853.085-.183.19-.423.29-.698l.157-.385.448.023.447-.023-.265.401c-.074.092-.195.33-.397.703l-.751 1.4-.349.695-.048.414c-.01.128-.01.322-.01.578 0 .36 0 .63.022.812l.036.46-.658-.01-.683.01.026-.47.03-.67v-1.124l-.372-.642-.771-1.41c-.129-.207-.276-.453-.465-.73l-.269-.417.868.023.746-.023zm8.942-.138l.667.028c.589.02 1.078.036 1.478.036.427 0 .913-.015 1.493-.036l.651-.028-.029.315.029.317-.534-.032-.67-.027h-.337v1.823l.026 1.537.017 1.044.029.524-.679-.01-.682.01.035-.524.022-1.044.007-1.537.019-1.494v-.33h-.343l-.659.028-.54.032.028-.317-.028-.315zm6.973 4.392l.012-1-.012-1.45v-.85l-.027-.682-.035-.41.704.048c.161 0 .449.016.822.016.569 0 .969-.016 1.232-.025l.474-.04-.014.35.014.367-.5-.029-.99-.026-.446-.009v1.727l.484.006c.315 0 .625-.006.924-.027l.468-.036-.028.36.028.364-.498-.04c-.269-.016-.562-.024-.905-.034l-.473.01v1.913l.463.012c.275 0 .571-.012.903-.035l.57-.04-.014.363.014.357-.538-.032-.968-.029h-1.022l-.704.061.035-.402c.012-.212.027-.465.027-.758zm7.5-1.073c.158.01.313.023.503.023.156 0 .289 0 .415-.014l.275-.033-.129-.313-.41-.973-.197-.452-.202.452-.403.973-.156.313.304.024zm-.148-1.753l.41-1.01.198-.54.303.022.358-.023.219.54.384.99a43.875 43.875 0 001.482 3.341l.306.59-.808-.01-.706.01-.171-.526-.257-.69-.114-.349-.454-.039c-.13-.007-.327-.024-.561-.024-.234 0-.424 0-.558.024l-.43.04-.13.34c-.088.212-.16.442-.243.673l-.169.551-.424-.01-.466.01.312-.569c.482-.979.976-2.08 1.519-3.34z" fill="#E5CE90"/></svg>