<svg width="19" height="16" fill="none" xmlns="http://www.w3.org/2000/svg"><path d="M19 2.18a8.023 8.023 0 01-2.217.608A3.826 3.826 0 0018.476.661a7.69 7.69 0 01-2.44.932A3.847 3.847 0 009.38 4.224c0 .305.025.598.089.877a10.891 10.891 0 01-7.931-4.024A3.874 3.874 0 001.01 3.02c0 1.333.686 2.514 1.709 3.198a3.8 3.8 0 01-1.738-.474v.043a3.866 3.866 0 003.082 3.78 3.84 3.84 0 01-1.008.127c-.247 0-.495-.014-.729-.066.499 1.524 1.913 2.645 3.596 2.68a7.731 7.731 0 01-4.771 1.642 7.21 7.21 0 01-.921-.053 10.833 10.833 0 005.903 1.727c7.08 0 10.951-5.865 10.951-10.95 0-.17-.005-.334-.014-.497A7.677 7.677 0 0019 2.18z" fill="#066035"/></svg>