<svg width="180" height="58" fill="none" xmlns="http://www.w3.org/2000/svg"><path d="M25.132 35.971s1.146-2.69 1.385-10.075c0 0-.133-1.64.938-2.792l1.578-.949-.234-1.739-14.476 9.75.343 2.249s4.026-3.364 4.544-2.463c0 0 .663 3.268-.244 7.186 0 0-1.422 3.619-4.024 3.462 0 0-6.318-1.183-6.073-8.473.24-7.277.282-14.447 1.681-18.686 0 0 1.379-6.077 6.413-8.753 0 0 2.626-1.541 3.857.274 0 0 2.471 1.427-1.935 5.111l.644 2.352 9.125-7.795s.11-4.202-10.438-2.222c0 0-12.139 2.01-16.009 17.572 0 0-4.293 18.854 5.71 23.759 0 0 6.034 1.808 11.732-2.518 0 0 3.932-3.156 5.483-5.25zm5.741-10.136c.099-.3 2.221-1.853 2.221-1.853s.87-1.285 1.117 1.455c.238 2.73-.019 14.664-.955 17.842-.243.802.31.238.31.238l4.875-3.986s-.185-10.444 2.656-14.819c0 0 1.03-1.615 1.666-1.687.63-.084 2.069 1.172 2.849.869 0 0 1.825-.953 2.752-2.99l1.208-2.06-.395-.325s-1.504 1.288-3.8.965c0 0-1.53-1.063-2.127-.662l-3.828 4.972s.207-3.874-2.549-4.972c0 0-5.202 3.875-7.154 5.87 0 0 1.056 1.44 1.154 1.143zm21.025 2.017c.082-1.212.665-2.791.665-2.791.708-2.293 2.312-3.49 2.312-3.49s1.166 1.66.554 3.542c-1.188 3.615-3.559 5.304-3.559 5.304-.121-1.816-.015-1.808.028-2.565zm14.939-2.939c.827-3.487 2.494-3.409 2.494-3.409.923 1.323.911 3.844-.079 5.571-1.442 2.516-2.82 3.74-2.82 3.74s-.086-1.325-.123-2.516c-.04-1.188.293-2.398.528-3.386zm-17.69 16.912s.303 1.393 2.335-.201c0 0 6.18-3.07 9.974-9.174 0 0 .13 4.795 3.246 8.773 0 0 .696 1.204 1.374 1.469.697.246 1.983-.359 2.799-1.058 0 0 3.945-2.492 10.764-13.71.17-.25 2.323-4.525 2.512-4.777 0 0 1.172-.838.995 1.47-.197 3.159.132 7.241-2.23 17.297 0 0-.719 1.752.28.907l4.872-3.375s.232-4.487.91-6.749c0 0 1.745-7.37 4.794-9.945 0 0 1.048-1.12.85 1.475 0 0 .107 3.04-1.26 11.243 0 0-.216 1.564-.295 3.813-.057 1.279.887 3.34 1.427 3.856.336.313.872 0 2.173-.722 0 0 1.662-.95 5.162-5.537 0 0-.763-.938-.801-.892-.326.328-2.359 3.443-2.996 2.7-.633-.74.197-5.18.033-4.895 0 0 1.984-10.861 1.122-13.873 0 0-.53-2.765-1.13-2.584-.576.176-3.034 1.78-4.702 3.988l-3.65 5.001s.561-7.99-2.559-7.976c0 0-1.39.97-2 1.57 0 0-2.094 1.934-3.276 4.15-2.766 5.236-4.19 6.853-5.837 8.997 0 0-3.046 3.905-4.664 3.834 0 0-2.017-.705-2.503-4.533 0 0 5.658-3.405 6.995-10.498 0 0 0-2.652-.456-3.505-.467-.86-.645-1.3-1.76-.613 0 0-7.633 2.253-10.069 11.525 0 0-4.16 7.533-7.57 7.85-.793-.317-1.62-.64-1.922-2.73l-.149-2.029s4.024-2.892 5.647-5.582c0 0 2.846-4.384 1.625-8.164 0 0-.202-1.993-1.83-.897 0 0-2.94 1.391-5.788 4.086 0 0-5.088 4.775-4.978 10.252 0 0-.413 5.482 2.537 9.763zM111.149 2.9s3.164-2.867 4.515 2.46c.692 2.707-2.413 4.745-2.413 4.745l.191.75 6.389-5.013s-.271-1.804-1.199-2.935c0 0-7.657-9.753-13.249 6.467-.875 2.543-1.025 7.674-1.025 7.674s-2.447.916-5.005 4.5c0 0 .037.654.769.47 0 0 1.392-1.91 4.292-2.543 0 0 .13 10.993-1.092 23.55l.23.22 4.9-2.419c.492-5.347 1.059-15.976.981-21.588 0 0 .651.163 1.441.122 0 0 1.049-.09 1.763-.237.701-.147 1.576-.42 3.502-2.67.177-.326.299-.824-.382-.556-3.236 1.262-6.631.32-6.631.32.023-2.208-.634-9.82 2.023-13.316z" fill="#fff"/><path d="M161.311 33.152l-2.03 2.623c-1.45 2.222-2.17-.887-2.17-.887-.42-2.974-.017-6.228-.017-6.228 1.528-9.638 5.219-6.284 5.219-6.284l-1.002 10.776zm-30.492-6.559c.471-2.054 2.956-4.126 2.956-4.126 1.605 3.35-3.349 8.318-3.349 8.318s-.078-2.134.393-4.192zm40.91 5.998c-.349.21-1.97 3.402-4.507 3.969 0 0-.897-2.444-.452-8.11 0 0 2.566-26.005 2.566-26.48 0 0 .252-1.56-.764-1.56l-8.631 6.866s.188.306.616.807c0 0 3.338-2.187 3.777-1.028.454 1.167-1.222 11.238-1.222 11.238s-7.468.334-10.69 11.64c0 0-5.488 7.748-5.328 4.602 0 0 .967-12.544 1.455-16.045 0 0 1.298-13.48 1.298-13.957 0 0-.182-2.077-1.314-1.915l-8.381 6.604s.099.027.831.763c0 0 2.028-1.679 2.845-1.298.379.178.206 2.773.206 2.773s-1.217 13.423-2.178 15.17c0 0-3.193 7.229-8.769 9.893 0 0-2.585-1.35-2.436-4.052 0 0 5.49-3.174 6.777-8.577 0 0 .778-2.563.518-4.434 0 0 .113-2.036-.859-1.88 0 0-3.795.76-7.899 6.953-.969 1.45-2.335 4.208-2.986 7.985 0 0-2.699 4.433-4.267 3.684 0 0-1.436-1.078.177-9.823 0 0 1.209-6.412 1.209-6.888 0-.483.749-2.489.096-2.168 0 0-3.992 1.893-9.35 5.429l.593.87c.604 0 3.823-2.506 3.992-1.729.123.509-.346 1.855-.346 1.855-.431 1.745-1.813 7.699-1.675 10.79 0 0 .271 8.296 2.693 8.46 0 0 1.498-1.151 2.788-2.734l4.553-6.14s-.202 4.55 2.372 7.568l1.296 1.273s5.414-3.955 11.604-12.714c0 0-.966 9.527 0 11.12 0 0 .812 1.43 1.455 1.43 0 0 6.013-6.584 8.909-10.716 0 0-.28 8.844 4.463 10.395 0 0 3.579-5.69 4.547-7.592 0 0-.045 3.408.06 4.435.105 1.029.605 3.694 2.809 3.548 0 0 3.673-2.453 8.268-10.023 0 0-.361-.467-.719-.257zm4.057-4.924h.331c.383 0 .712-.14.712-.505 0-.255-.19-.512-.712-.512-.143 0-.249.012-.331.023v.994zm0 1.627h-.46v-2.937c.239-.034.47-.069.817-.069.439 0 .73.093.9.22.179.129.266.329.266.61 0 .386-.256.62-.567.715v.024c.253.045.427.28.487.713.069.457.139.633.184.724h-.481c-.069-.091-.141-.362-.198-.75-.065-.373-.256-.515-.624-.515h-.324v1.265zm.486-3.759c-1.142 0-2.08.996-2.08 2.224 0 1.255.938 2.237 2.096 2.237 1.15.014 2.07-.982 2.07-2.223 0-1.242-.92-2.238-2.07-2.238h-.016zm.016-.406c1.415 0 2.546 1.169 2.546 2.63 0 1.488-1.131 2.649-2.562 2.649-1.42 0-2.575-1.16-2.575-2.649 0-1.461 1.155-2.63 2.575-2.63h.016z" fill="#fff"/><path d="M0 57.898l.017-.343.02-.72.027-1.065v-1.53l-.013-.682-.014-.62-.037-.4.564.032 1.088.03.966-.014.567-.047-.023.299.023.315-.542-.03a27.63 27.63 0 00-1.006-.026h-.384v1.791l.344.01c.313 0 .67-.01 1.066-.042l.43-.027-.015.298.015.322-.43-.03c-.397-.02-.765-.038-1.076-.038h-.334v.438l.015 1.05.017.702.03.327-.625-.011-.69.011zm5.711-1.175l.008-1.511-.008-1.346c0-.401 0-.714-.03-.963l-.027-.327.668.024.658-.024-.038.327c-.01.177-.02.505-.02.981l-.016 1.344v1.528c.004.314.016.583.025.814l.049.328-.658-.012-.668.012.028-.386.029-.789zm4.771-.255l.026-1.401-.01-1.234-.049-.767-.02-.49.41.023.396-.022.389.465c.165.203.46.515.885.951l.931.98c.34.353.652.663.913.935l.421.388-.022-.667-.004-.848-.039-.957-.022-.849-.012-.398.335.022.352-.022v.326l-.029.81-.024 1.543-.007 1.45v.797l.01.395-.353-.011-.396.011-.323-.392a18.123 18.123 0 00-.733-.813c-.27-.303-.614-.65-1.04-1.081l-.956-.979-.42-.435-.013.309-.011.82.025 1.129c0 .491 0 .867.015 1.13l.023.312-.336-.011-.364.011.02-.311c0-.281.014-.66.032-1.119zm8.24.387l.007-.978-.007-1.413v-.827l-.017-.664-.045-.4.698.05c.15 0 .417.014.792.014.553 0 .94-.015 1.19-.025l.46-.039-.016.34.015.358-.493-.028-.959-.026-.432-.008v1.682l.478.007c.31 0 .605-.007.881-.027l.475-.034-.021.348.021.357-.498-.037a19.235 19.235 0 00-.861-.035l-.475.008v1.864l.44.012c.278 0 .565-.012.893-.033l.551-.04-.015.353.015.349-.528-.03-.93-.03h-.983l-.698.06.045-.39a14.4 14.4 0 00.017-.739zm6.103-.11v-3.093c0-.28 0-.5-.018-.702l-.043-.373.674.022.646-.022-.036.373a14.27 14.27 0 00-.034.72v3.727l.682-.01c.35 0 .62-.004.814-.025l.42-.024-.02.304.02.306-.587-.05c-.243-.011-.666-.011-1.235-.011h-.741l-.603.061.035-.368c.012-.237.026-.511.026-.835zm6.809-4.168l.145.374c.087.217.195.458.336.718.091.233.233.512.385.799l.325.591.324-.597c.153-.32.28-.582.395-.83.079-.178.175-.414.28-.681l.15-.374.432.022.438-.022-.249.39c-.072.09-.189.32-.39.685l-.738 1.361-.318.68-.054.402c-.01.127-.022.314-.022.565 0 .35.012.615.022.79l.054.448-.649-.011-.67.011.036-.458.024-.65v-1.097l-.36-.626-.747-1.374c-.128-.2-.276-.441-.454-.712l-.261-.404.843.022.723-.022zm10.066 4.1c.185.534.54.8 1.055.793.303 0 .536-.058.685-.181a.765.765 0 00.3-.6c0-.256-.163-.466-.479-.665a5.272 5.272 0 00-.552-.289l-.512-.265c-.402-.216-.663-.49-.784-.819a1.84 1.84 0 01.044-1.247c.095-.221.243-.398.453-.556.334-.256.753-.379 1.268-.4.399 0 .751.08 1.086.243l.201.11-.144.36c-.03.09-.057.231-.106.42h-.154c-.108-.245-.223-.411-.35-.477a1.054 1.054 0 00-.575-.16c-.244 0-.434.05-.588.175-.164.133-.263.297-.255.514 0 .275.145.478.423.654.176.106.394.218.636.34.528.249.877.472 1.057.682a1.547 1.547 0 01.304.921c0 .518-.211.94-.612 1.283-.367.3-.828.452-1.411.452-.184 0-.396-.03-.595-.053-.185-.046-.366-.075-.515-.154l-.313-.13c.077-.215.137-.365.154-.464a2.36 2.36 0 00.08-.487h.2zm5.875.14l.012-.975-.012-1.414v-.826l-.024-.665-.041-.4.698.048c.164 0 .423.014.796.014.552 0 .947-.014 1.185-.023l.47-.039-.013.34.013.359-.485-.03-.968-.025-.432-.008v1.683l.48.006c.302 0 .59-.006.879-.027l.469-.035-.019.35.019.357-.488-.04a24.237 24.237 0 00-.88-.033l-.46.008v1.864l.442.014c.264 0 .565-.014.88-.036l.563-.038-.013.353.013.35-.537-.033-.917-.029h-.997l-.698.062.04-.393c.015-.206.025-.454.025-.739zm5.989-.072v-3.093c0-.28-.02-.5-.02-.702l-.058-.373.684.022.641-.022-.037.373c-.016.217-.018.458-.03.72v3.727l.683-.01c.348 0 .599-.004.814-.025l.419-.024-.022.304.022.306-.58-.05c-.251-.011-.67-.011-1.251-.011h-.734l-.609.061.03-.368c.027-.237.028-.511.048-.835zm5.919.072l.005-.975-.005-1.414v-.826l-.027-.665-.03-.4.686.048c.16 0 .426.014.793.014.55 0 .95-.014 1.19-.023l.465-.039-.02.34.02.359-.49-.03-.959-.025-.44-.008v1.683l.481.006c.302 0 .601-.006.891-.027l.46-.035-.019.35.02.357-.486-.04a23.455 23.455 0 00-.878-.033l-.47.008v1.864l.455.014c.268 0 .562-.014.88-.036l.555-.038-.02.353.02.35-.53-.033-.919-.029h-.998l-.688.062.031-.393c.027-.206.027-.454.027-.739zm9.909-3.445c-.285-.261-.65-.39-1.101-.39-.586 0-1.054.236-1.417.71-.287.406-.437.91-.437 1.523 0 .424.081.829.221 1.196.14.346.358.612.662.802.316.2.655.29 1.028.293.471 0 .87-.123 1.242-.4l.237-.18.113.051-.113.366-.064.312-.202.093c-.382.153-.861.245-1.407.252-.511 0-.98-.1-1.418-.252a2.831 2.831 0 01-.897-.549 2.639 2.639 0 01-.534-.743 2.94 2.94 0 01-.203-1.13c0-.913.307-1.613.916-2.108.603-.484 1.357-.735 2.301-.735.48 0 .923.082 1.328.214l.31.11-.114.385-.11.48h-.063a9.22 9.22 0 00-.278-.3zm2.986-.834l.643.027c.575.02 1.053.034 1.44.034.415 0 .889-.014 1.443-.034l.63-.027-.02.306.02.308-.516-.03-.64-.026h-.329v1.776l.013 1.498.02 1.017.043.511-.663-.011-.663.011.02-.511.033-1.017.016-1.498.005-1.456v-.32h-.328l-.651.026-.516.03.022-.308-.022-.306zm6.859 4.279v-3.215l-.033-.665-.032-.4.687.048c.16 0 .433.014.794.014.55 0 .94-.014 1.184-.023l.472-.039-.021.34.02.359-.494-.03-.956-.025-.432-.008v1.683l.476.006c.301 0 .602-.006.888-.027l.466-.035-.027.35.028.357-.498-.04a23.246 23.246 0 00-.872-.033l-.461.008v1.864l.442.014c.27 0 .554-.014.877-.036l.564-.038-.021.353.02.35-.527-.033-.935-.029h-.987l-.687.062.032-.393c.015-.206.033-.454.033-.739zm7.749.566l.432.014c.652 0 1.154-.226 1.485-.674.29-.395.44-.916.44-1.573 0-.483-.09-.894-.278-1.233-.23-.43-.57-.681-1.019-.765-.205-.042-.485-.05-.838-.064l-.516.022-.011.583-.02 1.557.014 1.45.017.661.294.023zm-1.52-.651l.013-1.52-.013-1.542c0-.33-.013-.564-.024-.71l-.03-.423.317.048c.11 0 .247.015.442.015.312 0 .629-.015.94-.024l.817-.039c.473 0 .866.048 1.18.15.498.15.889.48 1.201.983.24.435.362.932.376 1.47-.014.836-.299 1.52-.861 2.058-.528.506-1.252.75-2.18.75-.226 0-.5-.011-.803-.032l-.692-.03c-.204 0-.336 0-.437.012l-.3.05.03-.4c.011-.165.011-.442.024-.816zm12.568-.055c.178.534.543.8 1.057.793.287 0 .523-.058.673-.184.202-.158.314-.359.314-.598 0-.256-.17-.465-.483-.664a5.205 5.205 0 00-.555-.289l-.51-.265c-.4-.216-.665-.492-.788-.819a1.97 1.97 0 01-.084-.562c0-.265.039-.493.128-.685a1.41 1.41 0 01.454-.557c.337-.256.764-.378 1.268-.399.393 0 .747.08 1.081.243l.208.11-.148.36-.109.42h-.16c-.095-.245-.212-.41-.338-.48a1.095 1.095 0 00-.58-.157c-.243 0-.427.05-.579.174-.174.134-.273.298-.262.515 0 .276.144.478.419.654.18.106.402.215.64.34.538.249.882.472 1.058.68.089.124.167.269.227.437.059.164.073.315.073.486 0 .516-.211.94-.601 1.283-.369.3-.837.452-1.428.452-.182 0-.388-.03-.599-.053-.17-.046-.36-.075-.51-.154l-.292-.13c.071-.215.122-.365.147-.466a3.32 3.32 0 00.074-.485h.205zm7.513-1.607c.702-.007 1.056-.387 1.056-1.132-.006-.593-.295-.872-.872-.879l-.275.011-.039.425-.014.586-.008.645.008.33.144.015zm-.057-2.521l.695-.01c.629.01 1.083.147 1.35.399.12.106.206.222.269.363.088.206.114.413.114.646 0 1.076-.712 1.618-2.142 1.618l-.373-.01v.377l.007.902.035.676.014.351-.623-.01-.692.01.018-.325.016-.624.031-.99v-1.228l-.007-.94c0-.38-.024-.679-.028-.912l-.026-.303.644.026.698-.016zm5.285 4.232l.009-.975-.009-1.413v-.827l-.023-.665-.026-.4.683.048c.164 0 .421.015.798.015.544 0 .939-.015 1.178-.024l.47-.039-.025.341.025.358-.492-.029-.956-.025-.438-.009v1.683l.484.006c.298 0 .584-.006.883-.027l.459-.035-.019.351.019.355-.487-.04c-.263-.015-.554-.023-.864-.032l-.475.01v1.863l.446.012c.265 0 .561-.012.881-.034l.559-.04-.025.355.025.347-.527-.03-.933-.029h-.986l-.683.06.026-.392c.023-.207.023-.453.023-.739zm9.975-3.445c-.293-.26-.648-.392-1.101-.392-.588 0-1.061.239-1.417.713-.295.405-.427.91-.427 1.523 0 .423.059.827.214 1.195.137.346.362.613.667.803.308.2.644.288 1.02.292.461 0 .866-.122 1.249-.4l.235-.18.109.052-.109.365-.078.312-.192.093a3.957 3.957 0 01-1.407.253c-.504 0-.979-.099-1.424-.253a2.754 2.754 0 01-.894-.55 2.308 2.308 0 01-.537-.742c-.14-.327-.191-.703-.191-1.129 0-.915.296-1.613.91-2.108.592-.486 1.355-.735 2.293-.735.488 0 .924.081 1.335.213l.308.11-.109.386-.112.478h-.06c-.112-.119-.214-.218-.282-.3zm3.304 3.352l.027-1.512-.011-1.346c0-.4 0-.713-.033-.962l-.02-.329.656.026.658-.026-.028.329c-.02.176-.027.505-.027.98l-.009 1.343v1.53c.003.314.009.58.032.813l.032.327-.644-.01-.67.01.02-.384.017-.789zm5.853-.911c.155.011.319.024.488.024.156 0 .285 0 .415-.013l.262-.034-.128-.304-.405-.948-.179-.441-.197.441-.4.948-.13.304.274.023zm-.144-1.708l.413-.984.184-.527.283.024.363-.024.201.527.375.966a47.87 47.87 0 001.436 3.254l.305.575-.785-.01-.678.01-.171-.515-.249-.67-.117-.34-.438-.038c-.138-.006-.328-.022-.55-.022-.229 0-.397 0-.535.022l-.418.037-.137.334c-.072.204-.148.43-.225.654l-.169.538-.409-.01-.447.01.296-.553a68.65 68.65 0 001.472-3.258zm6.217 2.617v-3.095c0-.278-.006-.5-.022-.7l-.04-.374.675.021.639-.021-.026.374c-.015.216-.028.458-.035.719v3.726l.679-.009c.35 0 .62-.003.819-.026l.417-.024-.011.304.011.305-.575-.048c-.261-.01-.673-.01-1.263-.01h-.728l-.602.058.04-.367c.016-.237.016-.51.022-.833zm5.914.026l.009-1.511-.009-1.345c0-.402 0-.717-.023-.965l-.028-.326.665.022.665-.022-.039.327c-.022.177-.023.505-.023.982l-.022 1.341v1.529c.013.316.022.584.038.813l.046.329-.665-.01-.665.01.028-.384.023-.79zm3.997-4.137l.639.026c.569.022 1.057.036 1.446.036.403 0 .875-.014 1.435-.036l.637-.026-.013.306.013.309-.513-.033-.645-.023h-.328v1.775l.017 1.498.01 1.016.033.511-.646-.01-.663.01.022-.511.035-1.016v-3.273h-.313l-.659.023-.507.033.019-.31-.019-.305zm7.969.062l.142.375c.084.216.194.456.328.719.101.23.24.507.409.797l.315.59.308-.596c.165-.32.3-.58.408-.83a8.37 8.37 0 00.282-.68l.152-.375.435.022.434-.022-.257.39c-.072.09-.19.322-.386.684l-.729 1.365-.339.678-.046.403c-.01.125-.01.313-.01.563 0 .35 0 .614.022.79l.034.45-.638-.011-.663.01.025-.458.029-.652v-1.095l-.361-.626-.749-1.374c-.125-.201-.268-.441-.451-.711l-.261-.406.842.022.725-.022zm8.68-.136l.647.028c.572.02 1.047.035 1.435.035.415 0 .887-.015 1.45-.035l.632-.028-.028.307.028.31-.519-.032-.65-.026h-.327v1.776l.025 1.497.016 1.018.029.51-.66-.01-.662.01.034-.51.022-1.018.006-1.497.019-1.456v-.32h-.333l-.64.026-.524.031.027-.309-.027-.307zm6.77 4.28l.012-.975-.012-1.413v-.827l-.026-.665-.034-.4.683.048c.157 0 .436.015.798.015.553 0 .941-.015 1.196-.024l.46-.039-.013.341.013.358-.485-.029-.961-.025-.433-.009v1.683l.47.006c.306 0 .607-.006.897-.027l.454-.035-.027.351.027.355-.483-.04a29.823 29.823 0 00-.879-.032l-.459.01v1.863l.45.012c.266 0 .554-.012.876-.034l.553-.04-.013.355.013.347-.522-.03-.94-.029h-.992l-.683.06.034-.392c.012-.207.026-.453.026-.739zm7.281-1.045c.153.008.303.022.488.022.151 0 .28 0 .403-.014l.267-.032-.126-.305-.398-.948-.191-.44-.196.44-.391.948-.152.305.296.023zm-.144-1.708l.398-.986.192-.526.294.023.348-.023.212.526.373.965a42.979 42.979 0 001.439 3.255l.297.575-.784-.01-.686.01-.166-.512-.249-.673-.111-.34-.441-.038c-.126-.007-.317-.023-.544-.023-.228 0-.412 0-.542.023l-.417.038-.127.332c-.085.207-.155.431-.236.656l-.164.537-.411-.01-.453.01.303-.554c.468-.954.948-2.028 1.475-3.255z" fill="#E5CE90"/></svg>